<svg version="1.0" xmlns="http://www.w3.org/2000/svg" width="1333.333" height="1333.333" viewBox="0 0 1000 1000"><path d="M502 1.1c-14.9 2-28.9 11.7-34.2 23.5-4.7 10.7-.6 24.7 8.5 28.8 7.8 3.5 8.6 3.2 11.3-4.3 1.1-3 3-6.2 4.4-7.2 9.5-6.8 22.5 2.5 23.5 16.8.6 8.9-5.5 21.9-14.3 30.8-12 12-26.2 19.6-68.1 36.5-32.6 13.2-57.3 25.4-66.5 33.1-.6.5-2.9 2.3-5.1 4-8.8 6.7-19.9 18.7-25.2 27.4-8 12.9-11.1 30.4-6.9 38.5 2.3 4.5 7 8.7 10.5 9.5 1.6.3 8.5-.8 17.1-2.9 15.1-3.7 17-4.1 26-5.6 3-.6 6.6-1.2 8-1.5 1.4-.3 7.7-1.4 14-2.6 13.3-2.4 14.6-2.7 18-3.5 1.4-.3 3.7-.7 5.3-1 12.6-2.3 38.2-11.3 53.7-18.8 38.9-19 74.7-52.6 89.3-83.9 2.9-6.2 7-19.5 8.1-26.2 2.2-12.8 1.2-29.4-2.3-41.2-1.3-4.6-6.4-15.7-7.3-16.1-.4-.2-.8-.8-.8-1.4 0-.6-2.2-3.8-4.9-7.2C549.6 8.3 524.6-1.9 502 1.1zM397.8 173.3c2 1.6 4 6 3.6 8.1-.4 2.9-2.3 4.2-10.9 7.5-11.5 4.4-19.6 9.5-27.3 17.3-3.7 3.7-7.2 6.8-7.9 6.8-5.7 0-4.2-11.4 2.8-21.6 6.3-9.1 17.5-17.3 26.5-19.2 4.6-1 11.4-.4 13.2 1.1z"/><path d="M585.3 129.9c-1.5 1-4.8 5.1-7.2 9.2-18.9 31.9-49.4 58.9-86.3 76.3-9.2 4.4-23.9 10.5-26.8 11.1-.8.2-3.3 1-5.6 1.8-4.4 1.6-25.1 7.6-28.5 8.2-1.1.2-2.9.7-3.9 1-1 .3-2.9.8-4.2 1-1.3.3-7.9 1.7-14.8 3.1-6.9 1.4-13.2 2.7-14 2.9-3 .6-19.6 3.7-22 4.1-19.9 3.7-42.6 10.7-55 17-31.8 16.3-44.6 46.9-35.9 85.9 1.8 7.7 7.5 18.9 11.4 22.4 4.4 3.8 7.2 3.9 14.5.5 19.9-9.3 40.6-15.3 72-20.9 14.5-2.5 33.2-5.4 40-6 3.6-.3 8.1-.8 10-1 1.9-.3 9.1-.7 16-1 28.3-1.1 40.4-1.9 49-3 1.9-.3 5.2-.7 7.2-.9 9.4-1.2 37.5-6.8 48.8-9.7 33.2-8.7 61.8-23 79.7-40 10.1-9.6 15.2-16.5 21.1-28.4 5.7-11.6 7.4-20.1 7.5-37 .1-21.7-6.2-43.2-17.7-60.5-4.2-6.3-4.3-6.4-12.1-14.3-7.5-7.6-18.2-15.1-28.1-19.7-8.2-3.7-11.5-4.2-15.1-2.1zm32.7 42.9c1.9 1.5 4.3 3.6 5.3 4.7 7.5 8.6 8.7 23.3 2 25-3.6.9-4.7-.5-7.8-10.1-2.5-7.7-6.6-14.5-12.2-20.2-1.6-1.7-1.6-1.7.2-3.6 1.4-1.3 1.9-1.3 5.3.1 2 .8 5.3 2.7 7.2 4.1zm-260 98.7c3.3 1.7 5.7 5.2 6.3 9.4.8 4.6-2.7 8.2-10 10.5-5.7 1.7-8.5 2.8-17.3 6.9-8.1 3.7-18.5 11.6-26.8 20.2-8.1 8.4-9.3 9-12.8 6.4-1.6-1.3-.8-10.7 1.4-17.1 5.8-16.6 24.5-33.4 41.4-37.3 6.2-1.4 14-1 17.8 1z"/><path d="M661.8 284c-.9.6-3.1 3.6-4.9 6.8-13.3 23.6-40.7 41.6-81 53.2-10.3 2.9-31.8 7.7-38.9 8.6-1.9.2-5.7.8-8.5 1.4-2.7.5-7.5 1.2-10.5 1.5-3 .3-6.6.8-8 1-1.4.2-5 .7-8 1-3 .3-7.1.8-9 1-1.9.3-6 .7-9 1-3 .3-7.5.7-10 1-2.5.2-7.2.7-10.5 1-8.3.8-15.4 1.5-19.5 2-1.9.2-6.2.7-9.5 1-3.3.3-7.8.8-10 1.1-2.2.2-5.3.6-7 .8-1.6.2-4.6.7-6.5 1-1.9.4-5.3.8-7.5 1.1-2.2.2-6.9.9-10.5 1.4-3.6.6-8.3 1.3-10.5 1.6-12.7 2-34.6 7.2-45.9 10.9-22.3 7.4-35.5 14.8-47 26.3-3.6 3.7-6.6 7-6.6 7.4 0 .4-.6 1.4-1.3 2.1-2.8 3-9.9 18.4-11.1 24-.3 1.3-.8 3.4-1.1 4.8-1.3 5.7-1.6 15.9-.6 21.5 1.9 10.2 9 22.2 15.9 26.7 2.9 1.9 9.6 2.4 13.6.9 2.6-1 25.3-5.7 32.1-6.6 2.3-.3 5-.7 6.2-.9 1.2-.3 5.3-.8 9-1.1 3.7-.4 7.5-.9 8.4-1 2.2-.4 16.8-1.5 28.9-2.1 17.4-.9 97-.2 120.5 1 14.8.8 53.1.9 68 .2 18.4-.9 30.3-1.6 35.5-2.1 11.6-1 17.7-1.7 20.5-2 1.7-.2 5.3-.7 8-1 5-.6 9.4-1.2 15-2.1 5.8-.9 19.1-4.7 25.6-7.4 27.9-11.3 46.2-32.6 53-62 1.6-7 1.7-7.6 1.9-19.5.2-10.4-.4-17.8-2.1-25.5-.6-2.5-1.2-5.2-1.4-6-1.9-9.1-9.7-27.2-16.1-37.1-10.1-15.9-24.6-29.2-38.6-35.7-5.2-2.4-8.3-2.7-11-1.2zm15.7 41.5c14.5 6.7 27.1 24.4 27.6 38.7.3 8.5.1 9.5-3.2 13.3-2.5 2.8-3.8 3.5-6.9 3.5-4.7 0-6.2-2-8.5-11.4-3.6-14.3-10.6-27.3-19.8-36.9-4.8-4.9-5.7-7.3-3.5-9.5 1.7-1.7 8-.7 14.3 2.3zm-324.1 77.6c5.1 2.5 7.3 6.7 6.7 13.2-.1 1.6-5.9 5.9-8.6 6.3-2.9.5-11.8 4-17.8 7-12.5 6.2-18.5 11-32.1 25.6-2.7 3-6.7 3.7-8.4 1.5-.5-.6-.8-3.7-.7-6.7 1-19.3 20-40.5 43-47.8 4.2-1.4 14.4-.8 17.9.9zM688 496c-1.9.5-6.1 1.1-9.4 1.4-3.2.4-6.1.8-6.5 1-.3.2-4.2.7-8.5 1.1-4.3.4-8.7.8-9.8 1-10.1 2-90.9 2.7-134.3 1.2-11.5-.4-27.5-1-35.5-1.2-8-.3-20.1-.7-27-1-41.6-1.7-97.1-2.3-108.5-1.1-42.4 4.6-56.7 24-39.9 54.3 4.3 7.7 12.7 15.3 21.9 19.8 7.1 3.4 25.7 10.8 35.1 13.9 8.3 2.7 10.6 6.1 15.2 21.6 7.2 24.2 7.5 25.5 7.8 26.5 2.7 11.5 7.7 27.1 9 28.6 2.6 2.8 5.7 2.1 28.3-7 19.5-7.8 33.7-13.3 35.6-13.8.6-.1 8.2-2.7 17.1-5.7 23.5-8 55.3-16.2 67.4-17.3 4.9-.4 5.8-.2 8.3 2.1 2.3 2.1 2.8 3.3 2.5 6.3-.4 5.3-3.4 6.9-17.8 9.8-32.7 6.5-61.6 15.8-118.3 38-18.3 7.2-18.4 7.4-15.2 18.9 2.7 9.6 25.2 87.8 26.5 92.1 1.9 6.1 5.2 17.7 12.5 43.5 4.4 15.6 8.2 27.1 9.2 28.2 2.1 2 2.8 1.9 20.8-3.7 13.7-4.2 37.1-9.4 46-10.2 4.9-.4 6.4-.2 8.3 1.3 2.9 2.4 3.7 6.9 1.8 9.9-1.7 2.7-3.8 3.3-34.6 11.1-29.4 7.4-32.4 8.2-34.4 9.7-2.3 1.7-2.6 4.3-1 9.7 1.8 6.6 8.8 30.2 11.9 40 1.4 4.7 3.2 10.7 4 13.5 1.7 6.3 11.2 34 13 38 .7 1.6 1.8 4.5 2.6 6.4 1.7 4.6 10.7 13.8 14.3 14.7 4.4 1.1 9-.6 15-5.6 6.2-5.1 6.7-5.9 7.1-11.8.2-2.4 1.9-7.6 3.8-11.5 8.3-17.4 31.6-94.2 50.1-164.7 1.9-7.4 4.2-16.2 5.1-19.5 2.6-9.4 3.5-12.9 3.9-14.5.2-.8 2.8-10.4 5.6-21.3 2.9-10.9 5-20 4.7-20.3-.3-.3-3.4.6-6.9 2-8.3 3.2-50.7 18.9-68.3 25.3-3.8 1.3-9 3.3-11.5 4.3-11.2 4.5-18.3 4.1-20.8-1.4-2.7-5.9 1.7-9.8 16.3-14.6 8.5-2.8 21.4-7.4 28-10 1.7-.6 3.7-1.3 4.5-1.5.8-.2 10.3-3.8 21-8s23.5-9.1 28.5-10.8c11.6-4.2 16.6-8.6 19-17.2.9-3.3 4.7-16.4 8.5-29 20.4-68.6 20.8-69.8 27.8-77.2 5.4-5.7 15.2-10.3 22-10.3 3.3 0 18.4-6.5 24.9-10.6 16.5-10.6 24.9-27.8 24.1-49.9-.3-10.3-2.5-16.9-6.6-20.3-5.9-4.7-15.1-6.3-24.2-4.2z"/></svg>