<svg id="Layer_2" data-name="Layer 2" xmlns="http://www.w3.org/2000/svg" viewBox="0 0 738.02 1438.89"><defs><style>.cls-1{fill:#683d18;}.cls-2{fill:#d55993;}.cls-3{fill:#ef97bf;}.cls-4{fill:#f9c4db;}.cls-5{fill:#e1b17f;}.cls-6{fill:#e1b27f;}.cls-7{fill:#e1b280;}.cls-8{fill:#fffefe;}.cls-9{fill:#fefefe;}</style></defs><title>5</title><path class="cls-1" d="M883.83,247.9c33.09,17.1,63.45,38.1,90.28,64,62.47,60.31,103.4,132.46,119,218.41a299.76,299.76,0,0,1,3.77,83c-1.51,15.36-3.91,30.65-6.32,45.91-2,12.39-5.11,14.65-17.59,14.18-6,0-10.24-3.59-14.36-7.16a74.42,74.42,0,0,1-13.5-15.31,55.37,55.37,0,0,0-8.46-10.47c-3.59-3.29-6.74-3.45-10.76-.6s-6.27,6.84-8.88,10.69c-6,8.82-12,17.64-20.72,24.1s-18.56,8.95-29.2,5.75c-7.19-2.16-11.72-7.16-13.83-14.48-2.69-9.3,0-18.53,0-27.79,0-5.51,0-11-1.89-16.24a20.51,20.51,0,0,0-12.62-12.66A38,38,0,0,0,927.07,607c-7.34-.35-13.4,4.48-16.6,12.78-3,7.82-4.43,16-5.91,24.23-2.44,13.46-4.87,26.94-13.27,38.34-14.42,19.57-41.37,17.43-52.46-4.15a114.64,114.64,0,0,1-6.32-14.66c-5.14-14.66-11.17-28.9-21-41.16a29.11,29.11,0,0,0-6.85-6.49c-6-3.83-10.09-3.53-15.29,1.32a46.38,46.38,0,0,0-7.29,9.48,107.29,107.29,0,0,0-13.92,33.49c-2.91,12.89-7.08,25.36-14.32,36.57-5.28,8.16-11.77,14.84-21.49,17.65-14.89,4.31-27.5-2.45-32-17.25-3.23-10.67-2.19-21.41-.42-32.16,2.27-13.82,3.77-27.72,3.36-41.73A96.08,96.08,0,0,0,699,596.16c-3-9.31-8.06-17-18.54-17.9-10.71-1-20.54,2.1-27.55,10.94-7.32,9.23-9.78,20.29-10.84,31.7-1,11.15-2.69,22.13-6.49,32.72a44.3,44.3,0,0,1-3.86,8.66c-9.66,15.3-18.45,14.88-29.22,7-14-10.28-23.91-23.93-30.88-39.78-3.61-8.21-6.59-16.74-13.3-23.21-7.68-7.4-16.17-7.63-23.71,0-8,8-11.57,18.11-12.37,29.26A55.55,55.55,0,0,1,518.89,652c-3.6,9.16-11.35,14.37-21.15,14.75-15.12.58-25.68-5.82-32.35-19.51-4.63-9.5-7.09-19.74-11.07-29.44A60.33,60.33,0,0,0,448,605.39c-5.37-7.57-12.06-8.38-19.1-2.28-11.6,10-17.4,23.29-20.49,38-2,9.45-3.63,19-7.8,27.83-1.94,4.11-3.5,8.76-8.62,10.31-14.27,6.74-28.24-1.91-30.78-19.05-.24-1.59.16-3.34-1.06-4.71v-15c.92-7.72.87-15.53,1.73-23.24,1.76-15.8-.43-31.55-.13-47.34a354.8,354.8,0,0,1,35.34-149.42,337.79,337.79,0,0,1,73.27-99.57,394.32,394.32,0,0,1,80.16-58.18c12.66-7,25.56-13.55,38.8-19.42,1.81-.8,3.54-1.94,5.68-1.38,2.39,1.28,2.1,3.64,2.07,5.73-.26,21.29,9.93,37.18,26,49.86,14.06,11.09,30.29,17.93,47.31,22.93A250.93,250.93,0,0,0,743.17,331c29.44-.24,58.33-4.89,85.75-16.08,15.3-6.24,29.69-14.21,40.31-27.61A59.11,59.11,0,0,0,882,253.81C882.15,251.71,881.67,249.39,883.83,247.9Z" transform="translate(-360.19 -30.56)"/><path class="cls-2" d="M678.66,130.56c-8.47-6.49-16.61-13.27-22.35-22.5-11.43-18.42-6.24-41.62,11.12-49.5,15.24-6.93,35.54-2.29,46.39,10.61.91,1.07,1.8,2.14,3.33,4,.53-6.58,0-12.19,1.39-17.68C721.6,43,728.93,34.91,741.44,31.7c1.07-.28,2.41.11,3.13-1.14h14c4,1.56,8.32,2,12,4.34C782,42.16,785.35,53.48,786.35,66c.15,1.82.16,3.65.23,5.47,1.6,6.48.14,12.82-1.33,19a157.87,157.87,0,0,1-17.6,43.83c-1.95,3.33-4.39,4.75-8.13,4.35-12.19-1.29-22.23,2.8-29.88,12.41-2.15,2.7-4.43,3.63-7.78,2.42a191,191,0,0,1-40.18-19.76A6.91,6.91,0,0,1,678.66,130.56Z" transform="translate(-360.19 -30.56)"/><path class="cls-3" d="M392,679.22c9.25-9.2,11.67-21.37,14-33.4,2.6-13.21,6.65-25.7,15-36.47a37,37,0,0,1,9.64-9.32c6.42-3.95,12.4-3,17.17,3,5.76,7.13,8.31,15.8,11.21,24.27,3,8.63,5.55,17.38,10.63,25.13,7.65,11.66,20.49,15,33.78,12.34,8.86-1.81,13.06-8.41,15.44-16.56,1.93-6.61,1.54-13.53,2.93-20.2,1.81-8.63,5.4-16.41,11.64-22.73,7.94-8.05,18.06-8.07,26-.05,6,6.05,9.25,13.74,12.41,21.43A103.06,103.06,0,0,0,598.94,665c14.52,12.92,25.42,10.63,33.46-6.94,5.33-11.65,7-24.13,8.29-36.73,1.2-12,3.52-23.77,11.59-33.39,7.3-8.71,17.15-11.81,28.07-11.1,9.24.6,15,6.55,18.37,14.77,6.33,15.49,6.21,31.73,5.48,48.11-.68,15-4.86,29.57-4.51,44.64a55.45,55.45,0,0,0,1.36,10.87c5.27,23.42,30.89,22.89,43.22,11,9.92-9.54,15.39-21.56,19.22-34.39,4.12-13.82,7-28.05,14.36-40.7a78.69,78.69,0,0,1,9.67-13.88c6.23-6.77,11.38-7.27,18.74-1.79,6.28,4.68,10.43,11.14,14.27,17.77a173.7,173.7,0,0,1,13.9,31.89,71.27,71.27,0,0,0,7.09,15.32c10.28,16.36,30.73,18.8,44.87,5.41,9.19-8.71,12.22-20.29,14.89-32,2.4-10.51,3.51-21.3,6.93-31.59,4.17-12.54,10.65-17.69,20.9-16.54,15.5,1.75,23.65,9,25.21,22.16.92,7.67.22,15.28-.44,22.88-.9,10.32-.82,20.26,9.2,26.58,8.21,5.19,22.87,3.38,32-3.36,7.76-5.75,13.42-13.32,18.72-21.21,3.06-4.57,6-9.25,10-13,5.42-5,9.44-4.88,14.62.32,3.9,3.92,6.82,8.6,10,13.09,6.31,9.07,14.1,16.27,24.59,20.2-1,20.41-9.36,38.14-20.18,54.94s-23.62,32.47-35,49c-10.14,14.68-18.93,30-22.94,47.67-2.1,9.28-1.63,18.48-.23,27.67a50.2,50.2,0,0,1,.44,11.91c-.76,8.8-6.38,13-16.4,14a39.89,39.89,0,0,1-29.31-8.32c-2.42-.2-3.56-2.26-5.16-3.62-3.81-3.27-6.06-2.88-7.72,1.88-2.83,8.16-5.5,16.37-9.18,24.2C917.71,913,905.8,931.6,888,945.84c-1.67,1.34-3.25,2.87-5.52,3.18a5.35,5.35,0,0,0-3.29,2.3,7.64,7.64,0,0,1-3.12,3.1,96.27,96.27,0,0,1-47.25,13.32c-1.79,0-3.68.19-5.14-1.26l-5.9-.12c-8.7,1.14-16.73-1.8-24.69-4.45-17.36-5.76-32.61-15.28-46.41-27.2-1.62-1.39-3.33-2.79-3.86-5a5.26,5.26,0,0,0-3.06-2.51c-7.27-5.62-13.2-12.56-18.86-19.71a258.85,258.85,0,0,1-25.23-38.2c-3.11-5.82-6-5.85-9.65-.32-1.07,1.6-1.58,3.73-3.73,4.45l-2.61,4c0,2.17-1.32,3.71-2.47,5.3a140.84,140.84,0,0,1-47.43,41.49c-3,1.64-6,3.47-9.71,3.3l-8.57,3.08c-1.36,1-2.66,2.13-4.27,2.54-19.06,4.95-38.16,7.45-57.37.65a19.79,19.79,0,0,1-6.71-4.17C521.5,916.07,513.58,894.69,510,871c-2.1-13.82-2.87-27.72-1.23-41.71.35-3,1.75-7.63-2.77-8.42-4.7-.82-4.34,4.15-5.21,7-3.63,12-8.08,23.64-17.92,32.15-8.35,7.21-18,7.76-28.08,4.6s-16.35-10.27-18.71-20.69c-1.81-8-.82-15.77,1.42-23.57,8.49-29.52,1.42-56.29-15.75-80.6a211.76,211.76,0,0,1-27.95-55.89C393.26,682.31,392.62,680.78,392,679.22Z" transform="translate(-360.19 -30.56)"/><path class="cls-4" d="M599,226.68c3.92-13.34,13.2-22.84,23.18-31.66,6.28-5.55,12.84-10.9,20.52-14.58,1.67,3,.57,6.24.33,9.25-1.07,13.75,5.43,23.6,15.55,31.72,8.3,6.66,17.89,10.85,27.92,14.05a178,178,0,0,0,62.4,8.61c19.66-.91,39.07-3.79,57.33-11.73,18.63-8.11,31.49-20.88,32.87-42.48.09-1.48.05-3,1.26-4.18,19.64,10.41,34.91,24.63,41,46.94-1.16,4.7-4.13,8.23-7.31,11.68-17,18.52-38.49,29.89-61.8,38.17-21.46,7.63-43.67,11-66.39,12.62a194.41,194.41,0,0,1-64.21-5.81c-21.22-5.62-40-16-56.8-30.23-8.59-7.31-15.6-15.86-22.31-24.78A16.36,16.36,0,0,1,599,226.68Z" transform="translate(-360.19 -30.56)"/><path class="cls-4" d="M678.66,130.56a214.93,214.93,0,0,0,43.1,21.63c3,1.09,4.67,1.1,6.94-1.87,7.6-10,17.91-14.44,30.5-12.84,3.58.45,5.64-.55,7.51-3.9,8.46-15.21,15-31.1,18.24-48.26.84-4.55,1.1-9.22,1.63-13.84,2.63-1,5.21-2.15,7.88-3,6.54-2.14,11.12,0,13,6.77,2.46,9,2.75,18.26,3.19,27.55.47,10,.1,20.28,4.38,29.8A200.51,200.51,0,0,0,836.3,169a11.92,11.92,0,0,1,.9,1.74,11.34,11.34,0,0,1-3.66,4.63A164.84,164.84,0,0,1,748.46,209a129.65,129.65,0,0,1-47.83-4.19c-20.49-5.59-37.38-17-51-33.23a14.94,14.94,0,0,1-1.8-3c6.06-11.84,14.34-22,23.65-31.38C673.79,134.9,677.1,133.67,678.66,130.56Z" transform="translate(-360.19 -30.56)"/><path class="cls-3" d="M599,226.68a138.68,138.68,0,0,0,60.29,53.09,151.86,151.86,0,0,0,45.66,12.81c9.88,1.25,19.75,2.26,29.7,1.91,37.32-1.31,73.37-7.87,106.46-26.31,16-8.9,30-20.11,40.2-35.56q1.29,7.65,2.57,15.29c-.68,9.6-1.52,19.15-5.87,28-9.06,18.49-24.66,29.57-42.74,37.7-25.58,11.5-52.59,16.82-80.48,18.21-36.29,1.8-71.39-3.68-105.06-17.44-14.87-6.08-28.44-14.35-39-26.78-9.93-11.68-15.38-25.08-15-40.62,0-1.63.4-3.34-.51-4.89Q597.07,234.4,599,226.68Z" transform="translate(-360.19 -30.56)"/><path class="cls-3" d="M647.83,168.61c5.41,3.57,8.87,9.11,13.65,13.36,15.46,13.75,33.5,21.27,53.76,24.7,26.64,4.5,52-.07,76.83-9.28a151.51,151.51,0,0,0,45.13-26.66q1.56,7.47,3.11,15c.34,19.13-7.81,33.41-24.31,43.08-14.72,8.62-30.86,12.43-47.51,14.81-11.19,1.59-22.43,2.6-33.68,1.86-25.61-1.68-50.68-5.9-72.92-19.92-9-5.67-16.32-13.17-19.2-23.87-1.88-7-1.33-14.13,0-21.2C644.39,176.5,645.44,172.26,647.83,168.61Z" transform="translate(-360.19 -30.56)"/><path class="cls-5" d="M857,1051.83c-.75.83-1.38,1.59-2.06,2.28Q828.14,1081,801.4,1108c-2,2-3.08,1.93-5,0q-26.52-26.81-53.29-53.37c-2.07-2-1.85-3.13.08-5.09q26.25-26.7,52.28-53.64c2-2.1,3.09-1.84,5,.09q27,26.72,54.08,53.25C855.36,1050,856.1,1050.85,857,1051.83Z" transform="translate(-360.19 -30.56)"/><path class="cls-5" d="M678.18,1116.51c.8.68,1.59,1.25,2.25,1.94q26.12,26.79,52.24,53.56c2,2,1.8,3.27-.15,5.22q-26.22,26.32-52.24,52.87c-2,2.09-3.26,2.42-5.54.14Q649,1204.47,623,1179c-1.89-1.86-2.93-3.23-.52-5.68q26.93-27.37,53.67-54.94C676.77,1117.74,677.41,1117.21,678.18,1116.51Z" transform="translate(-360.19 -30.56)"/><path class="cls-5" d="M790.39,1352.67c0,1.33-1,2-1.78,2.88-17.92,19.42-35.89,38.78-53.73,58.27-2.33,2.54-3.6,2.13-5.74-.13q-24.3-25.74-48.83-51.27c-2.08-2.17-2.49-3.64,0-6.09q27.5-27.18,54.66-54.7c1.94-2,3.11-2.16,5.16-.09,16,16.18,32.2,32.24,48.31,48.35C789.23,1350.69,790.27,1351.37,790.39,1352.67Z" transform="translate(-360.19 -30.56)"/><path class="cls-5" d="M795.57,1113.51c-.77.91-1.35,1.69-2,2.37q-26.6,26.73-53.17,53.48c-1.62,1.64-2.58,1.92-4.34.1q-26.21-27.09-52.63-54c-2.44-2.48-.81-3.6.72-5.17,15.35-15.72,30.64-31.49,46.06-47.14,2.43-2.45,4.23-7,7.29-7,3.34,0,5.46,4.37,8,6.91q23.55,23.42,47,47C793.48,1111.12,794.43,1112.25,795.57,1113.51Z" transform="translate(-360.19 -30.56)"/><path class="cls-5" d="M850.18,1170.68c-2.36,5.27-2.6,12.09-7.82,17.16-14.08,13.69-27.86,27.69-41.57,41.74-2.62,2.7-4,2.71-6.62,0q-25-26.19-50.27-52c-2.36-2.42-2.16-3.71.1-6q26.19-26.05,52.14-52.36c2-2.07,3.13-2.48,5.42-.15,15.4,15.66,31,31.15,46.5,46.7C849.21,1166.93,850.74,1167.92,850.18,1170.68Z" transform="translate(-360.19 -30.56)"/><path class="cls-5" d="M676.61,995.46c1.69-.06,2.37,1,3.16,1.79,17.55,17.55,35,35.14,52.66,52.61,2.07,2.06,1.34,3.09-.29,4.75q-20.82,21.21-41.51,42.53c-3,3.1-6.08,6.16-8.84,9.48-2.38,2.86-4,2.86-6.63.08-14.83-15.53-29.87-30.86-44.84-46.25-1.16-1.2-2.31-2.4-3.49-3.58-6.14-6.17-6.14-6.17-.12-12.14l46.82-46.43C674.58,997.26,675.71,996.29,676.61,995.46Z" transform="translate(-360.19 -30.56)"/><path class="cls-5" d="M737.53,1292.56c-1.08-1-2-1.68-2.77-2.48-17.2-17.16-34.32-34.4-51.66-51.43-2.71-2.66-1.48-3.84.44-5.78q26.21-26.38,52.25-52.92c2-2,3.17-1.53,4.83.2q25.46,26.41,51,52.7c2.2,2.25,2.45,3.46.06,5.83-17.14,17-34.1,34.15-51.14,51.24C739.65,1290.83,738.62,1291.62,737.53,1292.56Z" transform="translate(-360.19 -30.56)"/><path class="cls-5" d="M794.51,990.48c-.8.92-1.4,1.68-2.08,2.38-17.31,17.73-34.67,35.42-51.9,53.24-2.3,2.38-3.63,2.3-5.92,0Q709,1020.19,683,994.59c-2.29-2.26-2-3.4.11-5.47q26.34-25.9,52.44-52c1.91-1.92,3-2.2,5-.11,17,16.9,34.09,33.66,51.15,50.47C792.7,988.34,793.51,989.36,794.51,990.48Z" transform="translate(-360.19 -30.56)"/><path class="cls-5" d="M673.83,991.59c-.89,1-1.57,1.94-2.37,2.73q-25,24.81-49.94,49.61c-2.55,2.54-4.37,3.44-7.48.14q-24-25.39-48.48-50.28c-2.82-2.88-3.59-4.35-.28-7.76,15.75-16.22,31.17-32.77,46.56-49.34,2.51-2.69,3.9-3.22,6.83-.26,17.21,17.38,34.67,34.51,52,51.74C671.75,989.2,672.69,990.34,673.83,991.59Z" transform="translate(-360.19 -30.56)"/><path class="cls-5" d="M620.09,927.46c24.8-10.82,44.16-28.12,59.61-50.09q15.66,15.36,31.31,30.71c7.12,7,14.21,14,21.43,20.85,2,1.89,2.19,3.12.1,5.17q-26.73,26.14-53.26,52.5c-1.82,1.81-2.8,1.39-4.36-.19q-27.07-27.24-54.28-54.35C619.09,930.51,618.49,929.22,620.09,927.46Z" transform="translate(-360.19 -30.56)"/><path class="cls-5" d="M823.7,966.48c20,.44,38.42-4.94,55.51-15.16,9.77,10.19,19.48,20.45,29.37,30.53,1.87,1.92,2.07,3.48,1.64,6.06-2.09,12.38-10,20.94-18.38,29.26q-14.36,14.21-28.52,28.61c-2,2.07-3.3,3-5.89.35q-26.8-26.79-54-53.21c-2.13-2.07-1.91-3.21,0-5.16C810.28,980.75,817,973.58,823.7,966.48Z" transform="translate(-360.19 -30.56)"/><path class="cls-5" d="M619,1171.25c-4.29-13.51-8.22-25.8-12.09-38.11-5.07-16.15-10-32.34-15.2-48.44-1-3.12-.69-5.18,1.75-7.45q10.93-10.2,21.48-20.83c2.19-2.2,3.47-2.11,5.57.07q25.31,26.21,50.82,52.18c3.13,3.18,3.51,5.2,0,8.7-15.56,15.49-30.75,31.33-46.06,47.07C623.32,1166.42,621.5,1168.52,619,1171.25Z" transform="translate(-360.19 -30.56)"/><path class="cls-5" d="M676.22,1353.92c-8.82-28-17.51-55.62-26.27-83.25a4.93,4.93,0,0,1,1.51-5.7q11.77-11.49,23.26-23.3c2-2,3.06-2,5.06,0q25.92,25.92,52,51.65c1.38,1.37,3.15,2.36.79,4.69C713.89,1316.43,695.29,1335,676.22,1353.92Z" transform="translate(-360.19 -30.56)"/><path class="cls-5" d="M791.39,1348.17c-4.77-5.25-9.15-10.41-13.88-15.23q-17-17.26-34.24-34.22c-2.17-2.14-2.25-3.32-.06-5.49q25.86-25.67,51.48-51.57c2.13-2.15,3.39-2.38,5.53-.05,5.85,6.36,11.89,12.55,17.94,18.71a4.24,4.24,0,0,1,1.24,4.86q-13.14,40.2-26.19,80.44A17.76,17.76,0,0,1,791.39,1348.17Z" transform="translate(-360.19 -30.56)"/><path class="cls-5" d="M852.41,1164l-26.73-26.8c-7-7.06-14-14.19-21.19-21.15-2-2-2-3.19,0-5.18q26.68-26.59,53.17-53.39c1.93-2,3.15-2.2,5.18-.09,5.29,5.51,10.82,10.81,16.24,16.21,1.15,1.14,2.33,2.06,1.61,4.21C871.33,1106.14,862.06,1134.52,852.41,1164Z" transform="translate(-360.19 -30.56)"/><path class="cls-6" d="M882.5,949A136.07,136.07,0,0,0,915,913a187.75,187.75,0,0,0,19.73-43.45c2.61-8.32,5.3-8.9,11.55-2.6,1.05,1.06,2,2.19,3,3.29L920.25,957c-2.42,7.24-4.81,14.49-7.39,22.27Z" transform="translate(-360.19 -30.56)"/><path class="cls-6" d="M543.17,929.56c22.64,10.49,45.47,7.3,68.35,1l-51,54.26C554.53,965.76,548.85,947.66,543.17,929.56Z" transform="translate(-360.19 -30.56)"/><path class="cls-6" d="M727.1,1469.44c-5.85-.12-13.79-5.49-19.11-15.13-1-1.83-1.5-3.38.32-5.31,7.19-7.58,14.29-15.27,21.21-23.1,2.14-2.42,3.28-2.09,5.3.11q10.62,11.55,21.64,22.72c2,2.06,2.18,3.72.77,6C751.59,1464.16,743.7,1469.63,727.1,1469.44Z" transform="translate(-360.19 -30.56)"/><path class="cls-6" d="M787,1364.54l-26.57,81.69c-6.44-5.41-11.26-11.71-16.79-17.31-8.76-8.86-8.66-8.83-.21-18,13.9-15,27.69-30.12,41.54-45.18A13.82,13.82,0,0,1,787,1364.54Z" transform="translate(-360.19 -30.56)"/><path class="cls-6" d="M647.51,1262.43c-8-25.37-15.77-50.3-24-76.67,4,3.88,7.08,6.72,10,9.66,12.59,12.57,25.1,25.21,37.76,37.71,2.23,2.19,2.64,3.54.14,5.91C663.47,1246.54,655.79,1254.29,647.51,1262.43Z" transform="translate(-360.19 -30.56)"/><path class="cls-6" d="M566.05,1002.55c4.41,3.94,9.64,8.22,14.39,13,10.46,10.48,20.69,21.2,31,31.83,1.47,1.51,3.48,2.71.95,5.22-7.54,7.5-14.91,15.18-23.22,23.68Q577.05,1037.64,566.05,1002.55Z" transform="translate(-360.19 -30.56)"/><path class="cls-6" d="M682.37,1370.79q16.62,17.52,33.21,35c3.89,4.11,7.69,8.28,11.6,12.36,1.2,1.26,1.71,2.22.28,3.74-7.36,7.87-14.63,15.81-22.38,24.21-7.92-25.25-15.67-50-23.43-74.7Z" transform="translate(-360.19 -30.56)"/><path class="cls-6" d="M842.55,1194.3c-6.81,20.77-13.34,40.58-19.74,60.44-.95,2.93-1.87,2.46-3.54.69-5.48-5.79-11-11.51-16.55-17.25-1.16-1.21-2.43-2.13-.54-4C815.46,1221.17,828.64,1208.06,842.55,1194.3Z" transform="translate(-360.19 -30.56)"/><path class="cls-6" d="M742.84,929.67c11.95,10.61,24.66,20.15,39.37,26.65,10.63,4.71,21.59,8.38,33.32,9.19a9,9,0,0,1,2.27.85c-5.82,6.15-11.73,12.24-17.43,18.5-1.94,2.12-3.08,2-5.08,0q-25.68-25.46-51.57-50.73C742.38,932.82,740.86,931.61,742.84,929.67Z" transform="translate(-360.19 -30.56)"/><path class="cls-6" d="M901.15,1015.16c-6,18.35-12,36.7-18.71,57-6.5-7-12.1-13-17.79-19-1.17-1.24-.62-1.94.28-2.85q17.82-17.74,35.6-35.5Z" transform="translate(-360.19 -30.56)"/><path class="cls-7" d="M682.31,873.38c1.17-2.18,2.24-4.43,3.53-6.54,3.07-5,7.37-4.85,10.19.44A259.5,259.5,0,0,0,718.23,902a199,199,0,0,0,17.82,20.65c1.38,1.39,3.1,2.54,3.73,4.56-1.52,1.58-2.52.5-3.65-.62Q709.24,899.95,682.31,873.38Z" transform="translate(-360.19 -30.56)"/><path class="cls-8" d="M816.74,455.39a12.47,12.47,0,0,1,12.69,12.51,12.87,12.87,0,0,1-12.83,12.58A12.43,12.43,0,0,1,804.38,468C804.32,460.64,809.44,455.41,816.74,455.39Z" transform="translate(-360.19 -30.56)"/><path class="cls-8" d="M934.76,409.4a12.47,12.47,0,0,1,12.48,12.71,12.89,12.89,0,0,1-12.54,12.38,12.47,12.47,0,0,1-12.51-12.68C922.2,414.49,927.4,409.35,934.76,409.4Z" transform="translate(-360.19 -30.56)"/><path class="cls-8" d="M549,412.69a12.44,12.44,0,0,1-12.39,12.8,12.88,12.88,0,0,1-12.66-12.75,12.45,12.45,0,0,1,12.35-12.34C543.66,400.31,548.93,405.41,549,412.69Z" transform="translate(-360.19 -30.56)"/><path class="cls-9" d="M524.14,336.51a12.5,12.5,0,1,1,.18-25,12.5,12.5,0,0,1-.18,25Z" transform="translate(-360.19 -30.56)"/><path class="cls-9" d="M448.65,437.82a12.52,12.52,0,0,1-12.36-12.35,12.75,12.75,0,0,1,13.07-12.76,12.49,12.49,0,0,1,12,12.72A12.21,12.21,0,0,1,448.65,437.82Z" transform="translate(-360.19 -30.56)"/><path class="cls-8" d="M938.05,348.84a12.34,12.34,0,1,1-.55-24.67c7.53-.11,12.73,4.78,12.83,12.06S945.45,348.76,938.05,348.84Z" transform="translate(-360.19 -30.56)"/><path class="cls-8" d="M855.71,392.84a12.34,12.34,0,1,1,.4-24.68c7.42,0,12.43,5.14,12.35,12.54S863.22,392.92,855.71,392.84Z" transform="translate(-360.19 -30.56)"/><path class="cls-8" d="M599.47,450.13a12.35,12.35,0,1,1,24.69.08c0,7.33-5.18,12.62-12.41,12.6S599.4,457.55,599.47,450.13Z" transform="translate(-360.19 -30.56)"/><path class="cls-8" d="M725.06,442.83c-7.47,0-12.54-5-12.54-12.36s5.1-12.34,12.57-12.32a12.34,12.34,0,1,1,0,24.68Z" transform="translate(-360.19 -30.56)"/><path class="cls-8" d="M994.82,400.47c-.05-7.3,5.17-12.72,12.28-12.75a12.21,12.21,0,0,1,12.4,12.66c0,7.13-5,12.3-12.06,12.44C1000.15,413,994.88,407.8,994.82,400.47Z" transform="translate(-360.19 -30.56)"/><path class="cls-8" d="M651.38,387.92c0-7.46,5-12.54,12.37-12.52s12.36,5.21,12.33,12.62a12.35,12.35,0,1,1-24.7-.1Z" transform="translate(-360.19 -30.56)"/></svg>