<?xml version="1.0" standalone="no"?>
<!DOCTYPE svg PUBLIC "-//W3C//DTD SVG 20010904//EN"
 "http://www.w3.org/TR/2001/REC-SVG-20010904/DTD/svg10.dtd">
<svg version="1.0" xmlns="http://www.w3.org/2000/svg"
 width="1000.000000pt" height="1000.000000pt" viewBox="0 0 1000.000000 1000.000000"
 preserveAspectRatio="xMidYMid meet">
<metadata>
Created by potrace 1.14, written by Peter Selinger 2001-2017
</metadata>
<g transform="translate(0.000000,1000.000000) scale(0.100000,-0.100000)"
fill="#000000" stroke="none">
<path d="M5020 9989 c-149 -20 -289 -117 -342 -235 -47 -107 -6 -247 85 -288
78 -35 86 -32 113 43 11 30 30 62 44 72 95 68 225 -25 235 -168 6 -89 -55
-219 -143 -308 -120 -120 -262 -196 -681 -365 -326 -132 -573 -254 -665 -331
-6 -5 -29 -23 -51 -40 -88 -67 -199 -187 -252 -274 -80 -129 -111 -304 -69
-385 23 -45 70 -87 105 -95 16 -3 85 8 171 29 151 37 170 41 260 56 30 6 66
12 80 15 14 3 77 14 140 26 133 24 146 27 180 35 14 3 37 7 53 10 126 23 382
113 537 188 389 190 747 526 893 839 29 62 70 195 81 262 22 128 12 294 -23
412 -13 46 -64 157 -73 161 -4 2 -8 8 -8 14 0 6 -22 38 -49 72 -145 183 -395
285 -621 255z m-1042 -1722 c20 -16 40 -60 36 -81 -4 -29 -23 -42 -109 -75
-115 -44 -196 -95 -273 -173 -37 -37 -72 -68 -79 -68 -57 0 -42 114 28 216 63
91 175 173 265 192 46 10 114 4 132 -11z"/>
<path d="M5853 8701 c-15 -10 -48 -51 -72 -92 -189 -319 -494 -589 -863 -763
-92 -44 -239 -105 -268 -111 -8 -2 -33 -10 -56 -18 -44 -16 -251 -76 -285 -82
-11 -2 -29 -7 -39 -10 -10 -3 -29 -8 -42 -10 -13 -3 -79 -17 -148 -31 -69 -14
-132 -27 -140 -29 -30 -6 -196 -37 -220 -41 -199 -37 -426 -107 -550 -170
-318 -163 -446 -469 -359 -859 18 -77 75 -189 114 -224 44 -38 72 -39 145 -5
199 93 406 153 720 209 145 25 332 54 400 60 36 3 81 8 100 10 19 3 91 7 160
10 283 11 404 19 490 30 19 3 52 7 72 9 94 12 375 68 488 97 332 87 618 230
797 400 101 96 152 165 211 284 57 116 74 201 75 370 1 217 -62 432 -177 605
-42 63 -43 64 -121 143 -75 76 -182 151 -281 197 -82 37 -115 42 -151 21z
m327 -429 c19 -15 43 -36 53 -47 75 -86 87 -233 20 -250 -36 -9 -47 5 -78 101
-25 77 -66 145 -122 202 -16 17 -16 17 2 36 14 13 19 13 53 -1 20 -8 53 -27
72 -41z m-2600 -987 c33 -17 57 -52 63 -94 8 -46 -27 -82 -100 -105 -57 -17
-85 -28 -173 -69 -81 -37 -185 -116 -268 -202 -81 -84 -93 -90 -128 -64 -16
13 -8 107 14 171 58 166 245 334 414 373 62 14 140 10 178 -10z"/>
<path d="M6618 7160 c-9 -6 -31 -36 -49 -68 -133 -236 -407 -416 -810 -532
-103 -29 -318 -77 -389 -86 -19 -2 -57 -8 -85 -14 -27 -5 -75 -12 -105 -15
-30 -3 -66 -8 -80 -10 -14 -2 -50 -7 -80 -10 -30 -3 -71 -8 -90 -10 -19 -3
-60 -7 -90 -10 -30 -3 -75 -7 -100 -10 -25 -2 -72 -7 -105 -10 -83 -8 -154
-15 -195 -20 -19 -2 -62 -7 -95 -10 -33 -3 -78 -8 -100 -11 -22 -2 -53 -6 -70
-8 -16 -2 -46 -7 -65 -10 -19 -4 -53 -8 -75 -11 -22 -2 -69 -9 -105 -14 -36
-6 -83 -13 -105 -16 -127 -20 -346 -72 -459 -109 -223 -74 -355 -148 -470
-263 -36 -37 -66 -70 -66 -74 0 -4 -6 -14 -13 -21 -28 -30 -99 -184 -111 -240
-3 -13 -8 -34 -11 -48 -13 -57 -16 -159 -6 -215 19 -102 90 -222 159 -267 29
-19 96 -24 136 -9 26 10 253 57 321 66 23 3 50 7 62 9 12 3 53 8 90 11 37 4
75 9 84 10 22 4 168 15 289 21 174 9 970 2 1205 -10 148 -8 531 -9 680 -2 184
9 303 16 355 21 116 10 177 17 205 20 17 2 53 7 80 10 50 6 94 12 150 21 58 9
191 47 256 74 279 113 462 326 530 620 16 70 17 76 19 195 2 104 -4 178 -21
255 -6 25 -12 52 -14 60 -19 91 -97 272 -161 371 -101 159 -246 292 -386 357
-52 24 -83 27 -110 12z m157 -415 c145 -67 271 -244 276 -387 3 -85 1 -95 -32
-133 -25 -28 -38 -35 -69 -35 -47 0 -62 20 -85 114 -36 143 -106 273 -198 369
-48 49 -57 73 -35 95 17 17 80 7 143 -23z m-3241 -776 c51 -25 73 -67 67 -132
-1 -16 -59 -59 -86 -63 -29 -5 -118 -40 -178 -70 -125 -62 -185 -110 -321
-256 -27 -30 -67 -37 -84 -15 -5 6 -8 37 -7 67 10 193 200 405 430 478 42 14
144 8 179 -9z"/>
<path d="M6880 5040 c-19 -5 -61 -11 -94 -14 -32 -4 -61 -8 -65 -10 -3 -2 -42
-7 -85 -11 -43 -4 -87 -8 -98 -10 -101 -20 -909 -27 -1343 -12 -115 4 -275 10
-355 12 -80 3 -201 7 -270 10 -416 17 -971 23 -1085 11 -424 -46 -567 -240
-399 -543 43 -77 127 -153 219 -198 71 -34 257 -108 351 -139 83 -27 106 -61
152 -216 72 -242 75 -255 78 -265 27 -115 77 -271 90 -286 26 -28 57 -21 283
70 195 78 337 133 356 138 6 1 82 27 171 57 235 80 553 162 674 173 49 4 58 2
83 -21 23 -21 28 -33 25 -63 -4 -53 -34 -69 -178 -98 -327 -65 -616 -158
-1183 -380 -183 -72 -184 -74 -152 -189 27 -96 252 -878 265 -921 19 -61 52
-177 125 -435 44 -156 82 -271 92 -282 21 -20 28 -19 208 37 137 42 371 94
460 102 49 4 64 2 83 -13 29 -24 37 -69 18 -99 -17 -27 -38 -33 -346 -111
-294 -74 -324 -82 -344 -97 -23 -17 -26 -43 -10 -97 18 -66 88 -302 119 -400
14 -47 32 -107 40 -135 17 -63 112 -340 130 -380 7 -16 18 -45 26 -64 17 -46
107 -138 143 -147 44 -11 90 6 150 56 62 51 67 59 71 118 2 24 19 76 38 115
83 174 316 942 501 1647 19 74 42 162 51 195 26 94 35 129 39 145 2 8 28 104
56 213 29 109 50 200 47 203 -3 3 -34 -6 -69 -20 -83 -32 -507 -189 -683 -253
-38 -13 -90 -33 -115 -43 -112 -45 -183 -41 -208 14 -27 59 17 98 163 146 85
28 214 74 280 100 17 6 37 13 45 15 8 2 103 38 210 80 107 42 235 91 285 108
116 42 166 86 190 172 9 33 47 164 85 290 204 686 208 698 278 772 54 57 152
103 220 103 33 0 184 65 249 106 165 106 249 278 241 499 -3 103 -25 169 -66
203 -59 47 -151 63 -242 42z"/>
</g>
</svg>
